<svg xmlns="http://www.w3.org/2000/svg" xmlns:xlink="http://www.w3.org/1999/xlink" width="80" zoomAndPan="magnify" viewBox="0 0 60 60" height="80" preserveAspectRatio="xMidYMid meet" version="1.0"><defs><g/></defs><path fill="rgb(0%, 0%, 0%)" d="M 2.351562 18.859375 L 2.351562 40.609375 L 57.832031 40.609375 L 57.832031 18.859375 L 2.351562 18.859375 M 57.648438 40.429688 L 2.53125 40.429688 L 2.53125 19.039062 L 57.648438 19.039062 L 57.648438 40.429688 " fill-opacity="1" fill-rule="nonzero"/><path stroke-linecap="butt" transform="matrix(0.000000000000000046, -0.756066, 0.564706, 0.000000000000000035, 29.782257, 43.761607)" fill="none" stroke-linejoin="miter" d="M -0.000147306 -0.00178337 L 36.708144 -0.00178337 " stroke="rgb(0%, 0%, 0%)" stroke-width="1" stroke-opacity="1" stroke-miterlimit="4"/><g fill="rgb(1.959229%, 3.919983%, 18.818665%)" fill-opacity="1"><g transform="translate(12.47614, 33.198952)"><g><path d="M 7.15625 -5.8125 C 7.15625 -5.738281 7.128906 -5.691406 7.078125 -5.671875 C 7.023438 -5.660156 6.960938 -5.65625 6.890625 -5.65625 L 3.875 -5.65625 L 3.875 -0.40625 C 3.875 -0.34375 3.867188 -0.285156 3.859375 -0.234375 C 3.859375 -0.191406 3.847656 -0.148438 3.828125 -0.109375 C 3.816406 -0.078125 3.796875 -0.0507812 3.765625 -0.03125 C 3.734375 -0.0078125 3.691406 0 3.640625 0 C 3.546875 0 3.484375 -0.0390625 3.453125 -0.125 C 3.421875 -0.207031 3.40625 -0.300781 3.40625 -0.40625 L 3.40625 -5.65625 L 0.390625 -5.65625 C 0.304688 -5.65625 0.234375 -5.660156 0.171875 -5.671875 C 0.117188 -5.691406 0.09375 -5.738281 0.09375 -5.8125 C 0.09375 -5.875 0.101562 -5.914062 0.125 -5.9375 C 0.15625 -5.96875 0.1875 -5.988281 0.21875 -6 C 0.257812 -6.007812 0.304688 -6.015625 0.359375 -6.015625 C 0.410156 -6.015625 0.457031 -6.015625 0.5 -6.015625 L 6.765625 -6.015625 C 6.816406 -6.015625 6.863281 -6.015625 6.90625 -6.015625 C 6.957031 -6.015625 7 -6.007812 7.03125 -6 C 7.070312 -5.988281 7.101562 -5.96875 7.125 -5.9375 C 7.144531 -5.914062 7.15625 -5.875 7.15625 -5.8125 Z M 7.15625 -5.8125 "/></g></g></g><g fill="rgb(1.959229%, 3.919983%, 18.818665%)" fill-opacity="1"><g transform="translate(41.0405, 33.198952)"><g><path d="M 4.84375 -3.203125 C 4.84375 -2.640625 4.804688 -2.148438 4.734375 -1.734375 C 4.660156 -1.328125 4.535156 -0.984375 4.359375 -0.703125 C 4.179688 -0.429688 3.941406 -0.226562 3.640625 -0.09375 C 3.347656 0.0390625 2.972656 0.109375 2.515625 0.109375 C 2.210938 0.109375 1.925781 0.0859375 1.65625 0.046875 C 1.382812 0.015625 1.140625 -0.046875 0.921875 -0.140625 C 0.703125 -0.234375 0.515625 -0.359375 0.359375 -0.515625 C 0.210938 -0.679688 0.101562 -0.894531 0.03125 -1.15625 C 0.0195312 -1.1875 0.015625 -1.226562 0.015625 -1.28125 C 0.015625 -1.351562 0.03125 -1.40625 0.0625 -1.4375 C 0.101562 -1.476562 0.148438 -1.5 0.203125 -1.5 C 0.242188 -1.5 0.285156 -1.476562 0.328125 -1.4375 C 0.378906 -1.40625 0.414062 -1.359375 0.4375 -1.296875 C 0.488281 -1.046875 0.585938 -0.851562 0.734375 -0.71875 C 0.878906 -0.582031 1.046875 -0.476562 1.234375 -0.40625 C 1.429688 -0.34375 1.640625 -0.300781 1.859375 -0.28125 C 2.085938 -0.269531 2.304688 -0.265625 2.515625 -0.265625 C 2.898438 -0.265625 3.210938 -0.328125 3.453125 -0.453125 C 3.703125 -0.578125 3.894531 -0.765625 4.03125 -1.015625 C 4.164062 -1.265625 4.257812 -1.570312 4.3125 -1.9375 C 4.363281 -2.300781 4.390625 -2.722656 4.390625 -3.203125 L 4.390625 -5.640625 C 4.390625 -5.742188 4.40625 -5.832031 4.4375 -5.90625 C 4.46875 -5.976562 4.535156 -6.015625 4.640625 -6.015625 C 4.679688 -6.015625 4.71875 -6.003906 4.75 -5.984375 C 4.78125 -5.960938 4.800781 -5.929688 4.8125 -5.890625 C 4.820312 -5.859375 4.828125 -5.816406 4.828125 -5.765625 C 4.835938 -5.722656 4.84375 -5.679688 4.84375 -5.640625 Z M 4.84375 -3.203125 "/></g></g></g></svg>